<svg xmlns="http://www.w3.org/2000/svg" x="0" y="0" width="100" height="82" viewBox="0 0 100 82" style="enable-background:new 0 0 100 82" xml:space="preserve">
  <path d="m41.4 39-5.5-9.5H5.8L0 38.7l10.2 16.9L0 73.3l5.8 9h39.7L66 47.7h7.8l-4.5 8.1 4.4 7.6-8.9.1-5.6 9.7 5.7 9.2h30.3L100 73l-9.3-17.5L100 39l-5-9.5H55L35 64.1h-8.1l4.8-8.3-4.7-8 9 .1 5.4-8.9zm-15.2 7.5-4-6.7h17.2l-4.2 6.8-9-.1zm13.3-8.1H19.9l9.9 17h-8.5l-14-24.6h27.8l4.4 7.6zm-38 34.7 10.2-17.5L1.5 38.7l4.6-7.4L20 55.7 6.1 80.1l-4.6-7zM44.8 81H7.3l13.9-24.4h8.5l-10 17.2h21.2l19.8-34.1 37.4-.2-8.7 15.3h-8.1l4.5-8.6-20.6.1L44.8 81zm25.7-9-4.1-7.4 19.5-.1-4.5-8.3h8.2l8.6 16-27.7-.2zm.3-16.3 4.5-8.1h8.4l-4.2 7.9 4.2 7.7-8.4.1-4.5-7.6zm-10 17.2 4.5-7.6 4.1 7.3-4.1 7.5-4.5-7.2zm5.6 8.1 4.1-7.6 27.7.2-3.8 7.4h-28zm31.8-42.7-37.5.1-4.2-7.6h37.7l4 7.5zm-42.8-7 4.2 7.6-19 32.7-4.4-7.1 19.2-33.2zM35 65.4l4.4 7.1H22l4.1-7.1H35z" fill="#7e7c7c"></path>
</svg>