<svg xmlns="http://www.w3.org/2000/svg" x="0" y="0" width="100" height="82" viewBox="0 0 100 82" style="enable-background:new 0 0 100 82" xml:space="preserve">
  <path d="M62.1 44.9 35.8 60 9.5 44.9 0 50.4v10.9l35.4 20.2.3.2 35.7-20.6v-11l-9.3-5.2zM1.5 60.5v-8.4L35 71.3v8.4L1.5 60.5zM35.8 70 2.2 50.8l7.3-4.3 26.2 15.1L62 46.5l7.2 4.1L35.8 70zM70 60.4 36.5 79.7v-8.4L70 51.9v8.5z" fill="#7e7c7c"></path>
  <path d="M35.7 22H50L26 35.7v11.2l9.6 5.2L71 31.8V20.7l-13.7-7.9H43.7V4.9l-8-4.7L0 20.7v11.1L9.3 37l26.4-15zm-.9-1.1-24.7 14v-8.3l24.8-14.2-.1 8.5zM34.7 50l-7.3-4v-8.6l7.3 4V50zm34.9-19.1L36.2 50.1v-8.6l33.4-19.1v8.5zm-33.8-29 6.5 3.8v8.6H57l11.9 6.8-33.4 19.1-7.3-4 27.3-15.6H36.2V9.9L9.3 25.3l-7.1-4.2L35.8 1.9zm-34.3 29v-8.6l7.1 4.2v8.4l-7.1-4z" fill="#7e7c7c"></path>
</svg>