<svg xmlns="http://www.w3.org/2000/svg" width="100" height="82" viewBox="0 0 100 82" style="enable-background:new 0 0 100 82" xml:space="preserve">
  <path d="m.1 38.4 10.2 17.2L.1 73l5.5 9h89.1l5.3-8.9-5.1-8.6H56l5-8.6-14.9-26.7H5.3L.1 38.4zm1.5 34.4 10.2-17.2L1.6 38.2l4.1-7.3 14.1 24.7L5.9 79.7l-4.3-6.9zm48.2-17.2-4.4 7.8-9.2-16.3 4.1-7.5 9.5 16zm-14.6-8.9h-9.4l-4.2-7.4h17.7l-4.1 7.4zm0 1.3 9.2 16.5H26.2l4.8-8.6-4.4-7.9h8.6zM7 80.7l13.9-24.3H29l-9.6 17.3h78.5l-4 6.9H7zm87.1-14.9 4 6.8H21.7l3.8-7.3v.5h68.6zm-47.5-1.3 4.4-8h8.1l-4.6 8h-7.9zm12.5-9.2H51L40.8 38H19.4L29 55.1l-8.1.1L6.8 30.5h38.5l13.8 24.8z" fill="#7e7c7c"></path>
</svg>